<svg width="100" height="100" viewBox="0 0 100 100" fill="none" xmlns="http://www.w3.org/2000/svg">
<path d="M83.3334 16.6667H16.6667C13.9053 16.6667 11.6667 18.9053 11.6667 21.6667V78.3333C11.6667 81.0947 13.9053 83.3333 16.6667 83.3333H83.3334C86.0947 83.3333 88.3334 81.0947 88.3334 78.3333V21.6667C88.3334 18.9053 86.0947 16.6667 83.3334 16.6667Z" fill="#E8E0D1"/>
<path d="M50 25V75C50 75 66.6667 70.8333 66.6667 50C66.6667 29.1667 50 25 50 25Z" fill="#D0C0B0"/>
<path d="M50 25V75C50 75 33.3333 70.8333 33.3333 50C33.3333 29.1667 50 25 50 25Z" fill="#D0C0B0"/>
<path d="M16.6667 21.6667H83.3333V78.3333H16.6667V21.6667Z" stroke="#E8E0D1" stroke-width="0"/>
<path fill-rule="evenodd" clip-rule="evenodd" d="M50.0001 25.0001C50.0001 25.0001 33.3334 29.1668 33.3334 50.0001C33.3334 70.8335 50.0001 75.0001 50.0001 75.0001L50.0001 79.1668C29.1667 75.0001 29.1667 54.1668 29.1667 50.0001C29.1667 45.8335 29.1667 25.0001 50.0001 20.8335L50.0001 25.0001Z" fill="#E8E0D1"/>
<path fill-rule="evenodd" clip-rule="evenodd" d="M50.0001 25.0001C50.0001 25.0001 66.6667 29.1668 66.6667 50.0001C66.6667 70.8335 50.0001 75.0001 50.0001 75.0001L50.0001 79.1668C70.8334 75.0001 70.8334 54.1668 70.8334 50.0001C70.8334 45.8335 70.8334 25.0001 50.0001 20.8335L50.0001 25.0001Z" fill="#E8E0D1"/>
</svg>